<svg 
	width="24" 
	height="24" 
	viewBox="0 0 24 24" 
	fill="none" 
	xmlns="http://www.w3.org/2000/svg"
>
	<path 
		d="M13.4 21.24C12.472 21.24 11.696 21.008 11.072 20.544C10.448 20.08 10.016 19.432 9.776 18.6V21H6.848V3.48H9.848V7.176L9.752 10.2C10.008 9.368 10.448 8.72 11.072 8.256C11.712 7.792 12.488 7.56 13.4 7.56C14.696 7.56 15.736 8.016 16.52 8.928C17.304 9.84 17.696 11.072 17.696 12.624V16.2C17.696 17.736 17.296 18.96 16.496 19.872C15.712 20.784 14.68 21.24 13.4 21.24ZM12.272 18.648C13.04 18.648 13.632 18.44 14.048 18.024C14.48 17.608 14.696 16.968 14.696 16.104V12.696C14.696 11.832 14.48 11.192 14.048 10.776C13.632 10.36 13.04 10.152 12.272 10.152C11.504 10.152 10.904 10.384 10.472 10.848C10.056 11.312 9.848 11.968 9.848 12.816V15.984C9.848 16.832 10.056 17.488 10.472 17.952C10.904 18.416 11.504 18.648 12.272 18.648Z" 
		fill="white"
	/>
</svg>
