<svg
  width="24"
  height="24"
  viewBox="0 0 24 24"
  fill="none"
  xmlns="http://www.w3.org/2000/svg"
>
  <path
    d="M10.2383 20.2344C9.64453 20.2344 9.05859 20.2109 8.48047 20.1641C7.90234 20.125 7.3125 20.0703 6.71094 20L7.87109 16.8477C8.28516 17.043 8.74219 17.1602 9.24219 17.1992C9.74219 17.2305 10.2383 17.2461 10.7305 17.2461C12.0352 17.2461 13.043 16.875 13.7539 16.1328C14.4727 15.3828 14.832 14.3281 14.832 12.9688C14.832 12.125 14.6328 11.4766 14.2344 11.0234C13.8438 10.5625 13.2852 10.332 12.5586 10.332C10.7773 10.332 9.88672 11.2266 9.88672 13.0156L9.16016 9.82812H10.2148C10.4258 8.17188 11.4102 7.34375 13.168 7.34375C14.7305 7.34375 15.9375 7.83203 16.7891 8.80859C17.6484 9.78516 18.0781 11.1719 18.0781 12.9688C18.0781 15.2734 17.3945 17.0625 16.0273 18.3359C14.668 19.6016 12.7383 20.2344 10.2383 20.2344ZM6.71094 20V2.42188H9.88672V19.7891L6.71094 20Z"
    fill="#cdd6f4"
  />
</svg>
