<svg width="36" height="36" viewBox="0 0 36 36" fill="none" xmlns="http://www.w3.org/2000/svg">
  <path d="M9.484 4.36H14.092V15.7H14.344C14.848 14.572 15.532 13.672 16.396 13C17.284 12.328 18.448 11.992 19.888 11.992C20.944 11.992 21.904 12.196 22.768 12.604C23.656 12.988 24.412 13.588 25.036 14.404C25.66 15.196 26.14 16.204 26.476 17.428C26.812 18.652 26.98 20.08 26.98 21.712C26.98 23.344 26.812 24.772 26.476 25.996C26.14 27.22 25.66 28.24 25.036 29.056C24.412 29.848 23.656 30.448 22.768 30.856C21.904 31.24 20.944 31.432 19.888 31.432C18.448 31.432 17.284 31.096 16.396 30.424C15.532 29.752 14.848 28.852 14.344 27.724H14.092V31H9.484V4.36ZM17.944 27.76C19.288 27.76 20.32 27.352 21.04 26.536C21.784 25.72 22.156 24.604 22.156 23.188V20.236C22.156 18.82 21.784 17.704 21.04 16.888C20.32 16.072 19.288 15.664 17.944 15.664C16.888 15.664 15.976 15.928 15.208 16.456C14.464 16.96 14.092 17.74 14.092 18.796V24.628C14.092 25.684 14.464 26.476 15.208 27.004C15.976 27.508 16.888 27.76 17.944 27.76Z" fill="black"/>
  <style>
    @media (prefers-color-scheme:dark){:root{filter:invert(100%)}}
  </style>
</svg>
